<svg width="88" height="88" viewBox="0 0 88 88" fill="none" xmlns="http://www.w3.org/2000/svg">
<path d="M42.7738 3C34.2363 3 25.4009 4.38983 19.3452 8.06295C9.51716 14.1186 6.63823 25.9322 7.03532 36.8523C7.33314 46.2833 9.81499 56.4092 16.5656 63.3583C22.9191 70.0097 36.0232 72.9879 45.0571 72.9879C45.4542 72.9879 45.8513 73.2857 45.8513 73.7821V83.3124C45.8513 84.2058 46.5462 85 47.539 85C47.6382 85 47.6382 85 47.7375 85C48.1346 85 48.4324 84.8015 48.631 84.6029C53.0983 80.7312 57.6649 76.7603 62.0329 72.7893C66.2024 68.9177 70.9675 64.9467 74.1443 60.2809C80.9942 50.4528 82.0862 36.6538 79.8029 25.138C77.6189 14.1186 69.7763 6.87167 58.8562 4.58838C54.1903 3.59564 48.5317 3 42.7738 3Z" fill="#00C6D7"/>
</svg>
