<svg width="179" height="89" viewBox="0 0 179 89" fill="none" xmlns="http://www.w3.org/2000/svg">
<path fill-rule="evenodd" clip-rule="evenodd" d="M112.364 5.91204H116.773L109.859 13.8282L117.174 21.4437H112.164L107.454 16.5337L106.953 17.0347L102.845 21.5439L101.041 23.4477C100.139 24.2494 98.3358 25.6522 95.9309 25.8526H94.1272C91.1211 25.8526 89.0168 24.049 89.0168 21.2432C89.0168 18.4375 91.2213 16.8343 95.0291 16.6339L98.7366 16.4335V15.1308C98.7366 13.8281 97.8348 13.1267 96.1313 13.1267C94.6282 13.1267 93.6262 13.6277 93.3256 14.5296H89.618C89.9186 11.7239 92.524 9.9202 96.4319 9.9202C99.6384 9.9202 101.843 11.1226 102.544 13.3271C102.645 13.6277 102.745 14.1285 102.845 14.6293L102.845 14.6298V0H106.953V11.9243L112.364 5.91204ZM95.5301 22.9467C97.434 22.9467 98.8368 21.7443 98.8368 20.141V19.0388L95.7305 19.2392C94.027 19.4396 93.1252 20.0408 93.1252 21.143C93.1252 22.2453 94.1272 22.9467 95.5301 22.9467ZM128.197 14.5296V13.4273C128.197 8.71775 125.591 5.91204 121.283 5.91204C116.874 5.91204 114.168 8.91815 114.168 13.7279C114.168 18.5377 117.074 21.3435 121.583 21.3435C125.19 21.3435 127.495 19.64 128.096 16.8343H124.389C123.988 17.8363 122.886 18.3373 121.383 18.3373C119.379 18.3373 118.076 16.9345 117.976 14.73V14.5296H128.197ZM121.283 8.91816C123.086 8.91816 124.289 10.1206 124.389 12.1247H118.076C118.176 10.2208 119.379 8.91816 121.283 8.91816ZM85.4095 7.82119L85.5097 7.7157H85.4095V7.82119ZM85.4095 7.82119L81.7019 11.7239L78.9964 14.6298H81.4013V21.7443C81.4013 24.7504 82.9044 25.9528 86.6119 25.9528C87.4135 25.9528 88.115 25.8526 88.616 25.7524V22.8465C88.4267 22.8465 88.2598 22.8689 88.0836 22.8924L88.0836 22.8924C87.8866 22.9188 87.678 22.9467 87.4136 22.9467C86.0107 22.9467 85.4095 22.3455 85.4095 20.9426V14.6298H88.616V11.4233H85.4095V7.82119ZM82.1027 32.5663H91.3215C91.7223 32.5663 92.0229 32.8669 92.0229 33.2677V47.9977C94.3276 45.3924 97.5342 44.0898 101.542 44.0898C109.559 44.0898 115.571 49.3004 115.571 60.6234C115.571 71.9465 109.559 77.0569 101.542 77.0569C97.434 77.0569 94.2274 75.7542 92.0229 73.1489L91.4217 75.7542C91.3215 76.0548 91.0209 76.3554 90.7203 76.3554H82.0025C81.6017 76.3554 81.3011 76.0548 81.3011 75.654V33.2677C81.4013 32.8669 81.7019 32.5663 82.1027 32.5663ZM92.1231 63.4291C92.1231 63.6295 92.1231 63.9301 92.2233 64.1306C93.025 67.4373 95.2295 68.9404 98.2356 68.9404C101.943 68.9404 104.649 66.5355 104.649 60.7236C104.649 54.8116 102.043 52.5069 98.2356 52.5069C95.4299 52.5069 93.2254 53.9097 92.2233 57.2165C92.1231 57.5171 92.1231 57.7175 92.1231 58.0181V63.4291ZM144.83 87.8789V45.4926C144.83 45.0918 145.131 44.7912 145.532 44.7912H154.149C154.45 44.7912 154.751 44.9916 154.851 45.3924L155.452 47.9977C157.757 45.3924 160.963 44.0898 164.971 44.0898C172.988 44.0898 179 49.2002 179 60.5232C179 71.8463 173.088 77.0569 164.971 77.0569C160.963 77.0569 157.657 75.7542 155.452 73.1489V87.8789C155.452 88.2797 155.151 88.5803 154.751 88.5803H145.532C145.131 88.5803 144.83 88.2797 144.83 87.8789ZM155.552 63.2287C155.552 63.5293 155.552 63.7297 155.652 64.0303C156.655 67.3371 158.859 68.7399 161.665 68.7399C165.372 68.7399 168.078 66.3351 168.078 60.5232C168.078 54.7114 165.472 52.3065 161.665 52.3065C158.659 52.3065 156.454 53.7093 155.652 57.1163C155.552 57.3167 155.552 57.6173 155.552 57.8177V63.2287ZM127.395 32.5663H118.176C117.775 32.5663 117.475 32.8669 117.475 33.2677V75.654C117.475 76.0548 117.775 76.3554 118.176 76.3554H127.395C127.796 76.3554 128.096 76.0548 128.096 75.654V33.2677C128.096 32.8669 127.796 32.5663 127.395 32.5663ZM131.103 39.9814V33.3679C131.103 32.9671 131.403 32.6665 131.804 32.6665H141.023C141.423 32.6665 141.724 32.9671 141.724 33.3679V39.9814C141.724 40.3822 141.423 40.6828 141.023 40.6828H131.804C131.503 40.6828 131.103 40.3822 131.103 39.9814ZM131.904 44.691H141.123C141.524 44.691 141.824 44.9916 141.824 45.3924V75.654C141.824 76.0548 141.524 76.3554 141.123 76.3554H131.904C131.503 76.3554 131.203 76.0548 131.203 75.654V45.3924C131.102 45.0918 131.503 44.691 131.904 44.691Z" fill="white"/>
<path d="M36.1091 5.91206C27.4915 5.91206 18.5734 7.31491 12.4609 11.0225C2.54075 17.1349 -0.365164 29.0592 0.0356519 40.0816C0.336264 49.601 2.84137 59.8218 9.65524 66.8361C16.0683 73.5498 29.2952 76.5559 38.4138 76.5559C38.8146 76.5559 39.2154 76.8565 39.2154 77.3575V86.9771C39.2154 87.8789 39.9169 88.6806 40.9189 88.6806C41.0191 88.6806 41.0191 88.6806 41.1193 88.6806C41.5201 88.6806 41.8207 88.4802 42.0211 88.2797C46.5303 84.3718 51.1397 80.3636 55.5487 76.3555C59.7572 72.4475 64.567 68.4394 67.7736 63.7298C74.6876 53.8096 75.7899 39.8812 73.4852 28.2575C71.2807 17.1349 63.3646 9.82001 52.3422 7.51532C47.6326 6.51328 41.9209 5.91206 36.1091 5.91206Z" fill="#00C6D7"/>
</svg>
